<?xml version="1.0" encoding="utf-8"?>
<!-- Generator: Adobe Illustrator 16.0.4, SVG Export Plug-In . SVG Version: 6.00 Build 0)  -->
<svg version="1.2" baseProfile="tiny" id="Layer_1" xmlns="http://www.w3.org/2000/svg" xmlns:xlink="http://www.w3.org/1999/xlink"
	 x="0px" y="0px" width="327.67px" height="335.016px" viewBox="0 0 327.67 335.016" overflow="auto" xml:space="preserve">
<path fill-rule="evenodd" d="M3.348,177.645c0.544,4.376,0.962,8.773,1.653,13.127c4.375,27.572,14.698,52.707,33.379,73.537
	c18.6,20.739,42.404,28.064,69.967,23.31c16.83-2.903,30.942-9.937,39.507-25.362c9.461-17.041,6.988-40.781-15.215-50.097
	c-13.705-5.75-27.074-4.39-41.555,1.649C85.438,196,79.662,177.785,73.549,158.506c2.217,0.544,3.676,0.907,5.136,1.261
	c18.651,4.52,36.771,4.19,54.033-5.462c14.292-7.993,14.431-26.875,1.443-35.15c-12.687-8.084-26.222-7.346-39.823-2.564
	c-13.359,4.697-25.709,11.335-37.022,19.88c-1.023,0.773-2.183,1.367-3.706,2.307c-3.851-7.309-7.571-14.29-11.216-21.31
	c-2.973-5.726-5.579-11.665-8.89-17.184c-1.755-2.924-1.162-4.455,1.241-6.155c19.918-14.089,41.482-24.165,66.289-24.542
	c10.679-0.163,21.675,0.698,32.02,3.195c14.907,3.598,24.834,14.464,29.67,28.523c8.401,24.419,3.126,46.798-13.994,65.989
	c-5.414,6.068-12.241,10.876-18.535,16.359c8.258,2.979,17.182,6.684,26.404,9.363c7.151,2.078,12.621-2.352,17.787-6.741
	c6.367-5.409,9.967-12.657,13.465-19.959c5.936-12.388,12.09-24.611,21.407-34.938c26.716-29.608,64.813-29.865,91.774-0.522
	c10.879,11.841,16.898,26.08,21.295,41.401c5.564,19.385,6.377,39.205,4.285,58.777c-2.396,22.409-10.59,42.907-27.848,58.915
	c-15.635,14.503-33.506,21.261-54.659,17.229c-15.786-3.008-27.271-12.375-34.921-26.361c-9.928-18.152-11.029-37.637-8.108-57.621
	c0.267-1.83,1.323-3.545,1.898-5.019c2.142,7.005,3.419,14.269,6.512,20.651c6.351,13.107,23.897,20.73,40.433,19.178
	c28.609-2.689,49.729-23.119,55.811-51.16c3.932-18.127,1.926-36.027-6.129-52.938c-8.186-17.187-26.328-19.959-40.986-9.304
	c-9.453,6.872-14.979,17.06-20.502,27.192c-7.183,13.177-15.344,25.635-29.26,32.988c-8.415,4.446-17.488,4.871-26.622,4.781
	c-4.712-0.047-9.415-0.893-14.868-1.453c1.822,3.995,3.632,7.754,5.27,11.585c6.893,16.132,9.773,32.856,8.013,50.43
	c-1.259,12.56-4.373,24.284-11.36,35.013c-7.245,11.121-17.258,18.699-29.167,23.768c-14.722,6.265-30.38,7.369-45.92,4.857
	c-17.725-2.865-33.521-10.454-47.592-22.002C25.7,294.606,14.23,272.012,6.906,246.7c-5.731-19.811-8.302-39.915-6.153-60.503
	c0.307-2.94,0.973-5.843,1.472-8.763C2.6,177.504,2.974,177.575,3.348,177.645z"/>
<path fill-rule="evenodd" d="M270.856,35.627c8.765,10.808,17.577,21.57,26.254,32.439c2.59,3.244-1.201,4.506-2.656,5.836
	c-11.422,10.44-24.525,18.149-39.199,23.133c-16.096,5.467-32.555,8.362-49.555,6.074c-13.877-1.868-26.256-7.535-36.289-17.282
	c-8.413-8.172-16.404-16.842-21.181-27.914c-5.134-11.899-7.605-24.132-5.847-37.846c2.481,5.513,4.021,10.684,6.875,14.983
	c14.269,21.504,33.419,34.958,60.3,33.92c16.088-0.621,30.27-7.034,42.792-16.886C258.7,47.09,264.466,41.353,270.856,35.627z"/>
<path fill-rule="evenodd" d="M236.103,30.716c-10.826,10.552-21.094,20.559-31.876,31.067c-5.099-4.78-10.442-9.812-15.813-14.816
	c-4.238-3.95-8.455-7.928-12.79-11.77c-2.038-1.806-2.285-3.422-0.388-5.437C184.378,20.052,193.49,10.314,203.163,0
	C214.142,10.237,224.69,20.075,236.103,30.716z"/>
</svg>
